<svg width="42" height="42" viewBox="0 0 42 42" fill="none" xmlns="http://www.w3.org/2000/svg">
<path d="M19.7695 6.23438H22.2305C22.4492 6.23438 22.5586 6.34375 22.5586 6.5625V35.4375C22.5586 35.6562 22.4492 35.7656 22.2305 35.7656H19.7695C19.5508 35.7656 19.4414 35.6562 19.4414 35.4375V6.5625C19.4414 6.34375 19.5508 6.23438 19.7695 6.23438Z" fill="white"/>
<path d="M7.21875 19.4414H34.7812C35 19.4414 35.1094 19.5508 35.1094 19.7695V22.2305C35.1094 22.4492 35 22.5586 34.7812 22.5586H7.21875C7 22.5586 6.89062 22.4492 6.89062 22.2305V19.7695C6.89062 19.5508 7 19.4414 7.21875 19.4414Z" fill="white"/>
</svg>
