<svg width="650" height="490" viewBox="0 0 650 490" fill="none" xmlns="http://www.w3.org/2000/svg">
<g clip-path="url(#clip0_6_5)">
<path d="M489.008 116.332H486.318V42.6468C486.318 31.3362 481.825 20.4888 473.827 12.491C465.83 4.49318 454.982 4.47894e-05 443.672 3.05177e-05H287.56C281.96 1.55012e-05 276.414 1.10309 271.24 3.24628C266.066 5.38947 261.365 8.5308 257.404 12.4909C253.444 16.451 250.303 21.1524 248.16 26.3265C246.016 31.5006 244.913 37.0463 244.913 42.6467V446.888C244.913 452.488 246.016 458.034 248.16 463.208C250.303 468.382 253.444 473.083 257.404 477.043C261.364 481.004 266.066 484.145 271.24 486.288C276.414 488.431 281.96 489.534 287.56 489.534H443.671C454.982 489.534 465.829 485.041 473.827 477.044C481.825 469.046 486.318 458.198 486.318 446.888V168.782H489.008L489.008 116.332Z" fill="#3F3D56"/>
<path d="M445.392 11.0953H425.015C425.952 13.3928 426.309 15.8855 426.056 18.3538C425.803 20.8221 424.947 23.1903 423.563 25.2497C422.179 27.3091 420.309 28.9966 418.12 30.1634C415.93 31.3302 413.487 31.9406 411.005 31.9408H321.571C319.09 31.9406 316.647 31.3303 314.457 30.1634C312.267 28.9966 310.398 27.3092 309.014 25.2497C307.63 23.1903 306.774 20.8221 306.52 18.3538C306.267 15.8855 306.625 13.3928 307.562 11.0953H288.529C280.083 11.0953 271.982 14.4507 266.009 20.4234C260.036 26.396 256.681 34.4967 256.681 42.9434V446.591C256.681 450.773 257.505 454.915 259.105 458.779C260.706 462.643 263.052 466.154 266.009 469.111C268.966 472.069 272.477 474.414 276.341 476.015C280.205 477.616 284.347 478.439 288.529 478.439H445.392C449.575 478.439 453.716 477.616 457.58 476.015C461.444 474.414 464.955 472.069 467.912 469.111C470.87 466.154 473.216 462.643 474.816 458.779C476.417 454.915 477.241 450.774 477.241 446.591V42.9434C477.241 38.761 476.417 34.6196 474.816 30.7556C473.216 26.8916 470.87 23.3807 467.912 20.4233C464.955 17.466 461.444 15.1201 457.58 13.5196C453.716 11.919 449.575 11.0953 445.392 11.0953Z" fill="white"/>
<path d="M399.454 186.126C415.057 186.126 427.705 184.921 427.705 183.435C427.705 181.949 415.057 180.744 399.454 180.744C383.852 180.744 371.203 181.949 371.203 183.435C371.203 184.921 383.852 186.126 399.454 186.126Z" fill="#E6E6E6"/>
<path d="M649.771 67.1755H389.693V152.555H399.544V174.885L421.874 152.555H649.771V67.1755Z" fill="#337443"/>
<path d="M536.905 96.0881H418.64V99.6772H536.905V96.0881Z" fill="white"/>
<path d="M624.765 108.504H418.64V112.093H624.765V108.504Z" fill="white"/>
<path d="M624.563 120.919H418.64V124.508H624.563V120.919Z" fill="white"/>
<path d="M583.328 324.69H375.725V392.843H383.588V410.667L401.413 392.843H583.328V324.69Z" fill="#337443"/>
<path d="M493.234 347.769H398.831V350.634H493.234V347.769Z" fill="white"/>
<path d="M563.367 357.68H398.831V360.545H563.367V357.68Z" fill="white"/>
<path d="M563.206 367.59H398.831V370.455H563.206V367.59Z" fill="white"/>
<path d="M383.516 419.64C395.971 419.64 406.067 418.678 406.067 417.492C406.067 416.306 395.971 415.345 383.516 415.345C371.062 415.345 360.965 416.306 360.965 417.492C360.965 418.678 371.062 419.64 383.516 419.64Z" fill="#E6E6E6"/>
<path d="M321.428 285.677C337.03 285.677 349.679 284.472 349.679 282.986C349.679 281.5 337.03 280.295 321.428 280.295C305.825 280.295 293.177 281.5 293.177 282.986C293.177 284.472 305.825 285.677 321.428 285.677Z" fill="#E6E6E6"/>
<path d="M148.274 201.049H331.17V261.091H324.242V276.794L308.539 261.091H148.274V201.049Z" fill="#337443"/>
<path d="M250.412 220.92H167.245V223.443H250.412V220.92Z" fill="white"/>
<path d="M312.199 229.651H167.245V232.175H312.199V229.651Z" fill="white"/>
<path d="M312.057 238.382H167.245V240.906H312.057V238.382Z" fill="white"/>
<path d="M59.1818 347.507C60.0587 349.017 61.4996 350.117 63.1875 350.565C64.8754 351.012 66.6719 350.771 68.182 349.894C69.6921 349.017 70.7919 347.576 71.2396 345.888C71.6872 344.2 71.4461 342.404 70.5691 340.894C70.385 340.585 70.1777 340.291 69.949 340.014L75.4877 300.537L75.6536 299.354L76.7787 291.299L76.9445 290.138L76.3314 290.167L65.6005 290.657L62.7228 290.787L62.3622 298.136L60.3213 339.452C59.2549 340.472 58.5628 341.821 58.3561 343.282C58.1494 344.743 58.4402 346.231 59.1818 347.507Z" fill="#A0616A"/>
<path d="M75.6217 299.714L61.9955 298.463C61.2887 298.397 60.637 298.053 60.1825 297.508C59.7281 296.962 59.5076 296.259 59.5693 295.552L62.0967 267.216C62.2192 265.839 62.6165 264.502 63.2651 263.282C63.9138 262.062 64.8006 260.984 65.873 260.113C66.9454 259.241 68.1817 258.594 69.5088 258.209C70.8358 257.824 72.2265 257.709 73.5988 257.871C74.971 258.033 76.2968 258.469 77.4977 259.152C78.6986 259.836 79.7502 260.753 80.5903 261.85C81.4304 262.947 82.0419 264.201 82.3886 265.539C82.7354 266.876 82.8103 268.27 82.6089 269.637L78.5231 297.431C78.4293 298.068 78.1098 298.65 77.6229 299.071C77.136 299.492 76.514 299.724 75.8703 299.725C75.7881 299.725 75.705 299.721 75.6217 299.714Z" fill="#CCCCCC"/>
<path d="M65.2949 276.82C63.9168 272.916 63.8529 268.668 65.113 264.725C66.3732 260.781 68.8883 257.358 72.2748 254.977C77.4132 251.461 84.4446 250.199 92.017 259.214C107.162 277.243 111.128 297.075 111.128 297.075L80.1176 302.124C80.1176 302.124 69.5706 289.233 65.2949 276.82Z" fill="#CCCCCC"/>
<path d="M115.449 479.906H124.29L128.496 445.803L115.448 445.804L115.449 479.906Z" fill="#A0616A"/>
<path d="M141.342 488.115L113.555 488.117L113.554 477.381L132.767 477.38C133.893 477.38 135.008 477.601 136.048 478.032C137.089 478.463 138.034 479.095 138.83 479.891C139.626 480.687 140.258 481.632 140.689 482.672C141.12 483.713 141.342 484.828 141.342 485.954L141.342 488.115Z" fill="#2F2E41"/>
<path d="M42.7592 472.196L51.1538 474.97L65.851 443.911L53.4616 439.816L42.7592 472.196Z" fill="#A0616A"/>
<path d="M64.7671 488.117L38.3836 479.396L41.7529 469.202L59.9953 475.232C61.0644 475.585 62.0534 476.146 62.9059 476.882C63.7584 477.617 64.4577 478.513 64.9638 479.519C65.4699 480.525 65.7729 481.621 65.8556 482.744C65.9382 483.867 65.7989 484.995 65.4455 486.064L64.7671 488.117Z" fill="#2F2E41"/>
<path d="M93.2559 243.865C101.84 239.172 104.994 228.41 100.302 219.827C95.6097 211.243 84.8474 208.088 76.2637 212.78C67.68 217.473 64.5254 228.235 69.2177 236.819C73.9099 245.402 84.6722 248.557 93.2559 243.865Z" fill="#A0616A"/>
<path d="M100.269 470.413L92.0576 416.22C91.97 415.642 91.6842 415.112 91.2491 414.721C90.814 414.33 90.2566 414.102 89.6722 414.077C89.0877 414.051 88.5126 414.229 88.045 414.581C87.5774 414.933 87.2465 415.436 87.1089 416.004L74.6052 467.649C74.4082 468.44 73.9226 469.129 73.2438 469.581C72.5649 470.032 71.7418 470.214 70.936 470.09L36.4459 464.547C35.9886 464.473 35.5523 464.303 35.1663 464.047C34.7804 463.791 34.4537 463.455 34.2083 463.062C33.9629 462.669 33.8044 462.228 33.7434 461.769C33.6825 461.31 33.7206 460.843 33.8551 460.4L78.828 312.13C78.9558 311.708 78.971 311.26 78.872 310.831L77.3746 304.342C77.2101 303.639 77.286 302.9 77.5901 302.245C77.8942 301.59 78.4091 301.055 79.0525 300.726C85.1765 297.601 100.684 291.105 112.393 298.221C112.773 298.453 113.102 298.76 113.36 299.122C113.618 299.485 113.799 299.897 113.893 300.332L149.026 465.456C149.121 465.905 149.12 466.369 149.023 466.818C148.926 467.266 148.735 467.689 148.462 468.059C148.19 468.428 147.842 468.735 147.442 468.96C147.041 469.185 146.598 469.323 146.141 469.364L103.767 473.158C103.669 473.167 103.572 473.171 103.476 473.171C102.7 473.17 101.95 472.891 101.362 472.385C100.774 471.879 100.386 471.179 100.269 470.413Z" fill="#2F2E41"/>
<path d="M73.0146 215.808C74.3499 215.005 75.5348 213.975 76.5162 212.765C77.0002 212.154 77.3187 211.428 77.4411 210.658C77.5636 209.888 77.4858 209.099 77.2154 208.368C76.3205 206.394 73.6612 205.768 71.6007 206.441C69.5403 207.114 67.9483 208.729 66.4424 210.288C65.1159 211.661 63.7515 213.094 63.1222 214.897C62.493 216.7 62.8162 218.985 64.3813 220.079C65.9172 221.152 68.1254 220.712 69.6026 219.56C71.0799 218.407 71.9943 216.697 72.8662 215.038L73.0146 215.808Z" fill="#2F2E41"/>
<path d="M67.0156 210.761C66.9174 205.77 61.2286 202.192 56.3157 203.076C51.4029 203.96 47.6265 208.149 45.7362 212.769C41.7422 222.531 44.7405 233.669 48.5888 243.488C52.4371 253.308 57.1993 263.277 56.638 273.809C56.2586 279.502 54.3486 284.986 51.1098 289.684C47.871 294.381 43.4236 298.116 38.2375 300.495C43.7821 303.008 50.4096 300.412 55.0689 296.494C65.4163 287.793 69.4103 272.302 64.5602 259.682C62.1679 253.458 57.9521 248.133 54.6607 242.334C51.3693 236.534 48.9544 229.7 50.6537 223.252C52.353 216.804 59.5847 211.582 65.7675 214.079L67.0156 210.761Z" fill="#2F2E41"/>
<path d="M85.822 236.183C84.2781 233.573 82.7192 230.148 85.5422 227.867C86.1559 227.393 86.8581 227.048 87.6074 226.849C88.3568 226.651 89.1381 226.605 89.9056 226.713C93.0877 227.097 96.5528 227.255 99.6325 226.099C100.788 225.701 101.851 225.076 102.76 224.259C103.668 223.443 104.404 222.452 104.922 221.346C106.512 217.579 104.521 213.001 101.197 210.619C99.1635 209.215 96.7606 208.443 94.2899 208.399C91.8192 208.355 89.3906 209.042 87.3087 210.373C83.0035 208.472 77.7798 209.317 73.8685 211.935C69.9572 214.553 67.2808 218.745 65.8268 223.221C64.4875 227.074 64.2569 231.226 65.1613 235.203C65.8891 237.97 67.273 240.521 69.1958 242.64C71.1186 244.759 73.5237 246.383 76.2074 247.376C77.2529 247.788 78.3883 247.918 79.4999 247.753C80.6115 247.588 81.6602 247.134 82.5409 246.436C82.5409 246.436 84.9823 244.305 85.7462 241.738C86.3329 239.767 86.6469 237.577 85.822 236.183Z" fill="#2F2E41"/>
<path d="M138.368 251.988C138.28 252.377 138.222 252.772 138.196 253.17L107.216 271.043L99.6858 266.708L91.6583 277.217L104.243 286.186C105.26 286.911 106.484 287.286 107.732 287.256C108.98 287.225 110.185 286.791 111.165 286.018L143.11 260.816C144.552 261.349 146.122 261.432 147.612 261.051C149.101 260.671 150.439 259.846 151.449 258.686C152.458 257.527 153.09 256.087 153.262 254.56C153.433 253.032 153.135 251.488 152.407 250.134C151.68 248.78 150.557 247.679 149.189 246.978C147.821 246.278 146.272 246.01 144.747 246.211C143.223 246.412 141.797 247.073 140.657 248.105C139.518 249.137 138.719 250.491 138.368 251.988V251.988Z" fill="#A0616A"/>
<path d="M106.18 271.889L96.1677 284.866C95.8828 285.235 95.5216 285.539 95.1089 285.756C94.6961 285.973 94.2414 286.098 93.7758 286.124C93.3101 286.149 92.8444 286.074 92.4104 285.903C91.9765 285.733 91.5844 285.47 91.2608 285.135L79.9259 273.364C78.0447 271.896 76.8226 269.742 76.5274 267.374C76.2323 265.006 76.8883 262.617 78.3516 260.732C79.8148 258.847 81.9659 257.62 84.3331 257.318C86.7002 257.017 89.0903 257.667 90.9791 259.125L105.196 267.075C105.603 267.302 105.956 267.615 106.231 267.992C106.506 268.368 106.697 268.799 106.79 269.256C106.884 269.713 106.878 270.185 106.772 270.639C106.667 271.094 106.465 271.52 106.18 271.889Z" fill="#CCCCCC"/>
<path d="M208.03 489.534H0.842226C0.618853 489.534 0.404628 489.446 0.246679 489.288C0.0887307 489.13 -3.8147e-06 488.916 -3.8147e-06 488.692C-3.8147e-06 488.469 0.0887307 488.255 0.246679 488.097C0.404628 487.939 0.618853 487.85 0.842226 487.85H208.03C208.254 487.85 208.468 487.939 208.626 488.097C208.784 488.255 208.872 488.469 208.872 488.692C208.872 488.916 208.784 489.13 208.626 489.288C208.468 489.446 208.254 489.534 208.03 489.534H208.03Z" fill="#CCCCCC"/>
</g>
<defs>
<clipPath id="clip0_6_5">
<rect width="649.772" height="489.534" fill="white"/>
</clipPath>
</defs>
</svg>
