<svg width="55" height="55" viewBox="0 0 55 55" fill="none" xmlns="http://www.w3.org/2000/svg">
<path d="M54.2003 0.7121C53.8918 0.405107 53.5022 0.192558 53.0771 0.0994411C52.652 0.00632453 52.2091 0.0365122 51.8006 0.186455L1.52153 18.4698C1.08791 18.6342 0.714594 18.9267 0.451157 19.3084C0.18772 19.6901 0.0466309 20.1429 0.0466309 20.6066C0.0466309 21.0704 0.18772 21.5232 0.451157 21.9048C0.714594 22.2865 1.08791 22.579 1.52153 22.7435L21.1532 30.5824L35.6427 16.0472L38.8652 19.2696L24.3071 33.8277L32.1689 53.4594C32.3383 53.8846 32.6314 54.2492 33.0104 54.5059C33.3893 54.7627 33.8366 54.8997 34.2943 54.8992C34.7562 54.8897 35.2043 54.7405 35.5797 54.4713C35.955 54.202 36.24 53.8253 36.3969 53.3908L54.6802 3.11178C54.8359 2.70744 54.8735 2.26716 54.7885 1.84229C54.7035 1.41742 54.4995 1.02545 54.2003 0.7121Z" fill="white"/>
</svg>
